# xmcd
#
# Track frame offsets: 
#        150
#        7350
#        16691
#        26810
#        34122
#        44087
#        53079
#        59364
#        71007
#        76880
#        89062
#        97244
#        105828
#        114882
#        123867
#        130230
#        138166
#        147973
#        156044
#        167284
#
# Disc length: 2306 seconds
#
# Revision: 0
# Processed by: cddbd v1.5.2PL0 Copyright (c) Steve Scherf et al.
# Submitted via: ExactAudioCopy v0.99pb3
#
DISCID=09090014
DTITLE=Autry, Gene - 80 Originals Hits and Rarities CD 3
DYEAR=2010
DGENRE=Country
TTITLE0=Red River Valley
TTITLE1=It Makes No Difference Now
TTITLE2=The Singing Hills
TTITLE3=You Laughed And I Cried
TTITLE4=Pretty Mary
TTITLE5=Mexicali Rose
TTITLE6=Wave To Me My Lady
TTITLE7=Let The Rest Of The World Go By
TTITLE8=The Honey Song
TTITLE9=Ole Faithful
TTITLE10=Here Comes Santa Claus
TTITLE11=You Are My Sunshine
TTITLE12=Buttons And Bows
TTITLE13=Blue Eyes Crying In The Rain
TTITLE14=Shame On You
TTITLE15=While The Angelus Was Ringing
TTITLE16=Under Fiesta Stars
TTITLE17=Rudolph The Red-Nosed Reindeer
TTITLE18=Mule Train
TTITLE19=Dear Hearts And Gentle People
EXTD=
EXTT0=
EXTT1=
EXTT2=
EXTT3=
EXTT4=
EXTT5=
EXTT6=
EXTT7=
EXTT8=
EXTT9=
EXTT10=
EXTT11=
EXTT12=
EXTT13=
EXTT14=
EXTT15=
EXTT16=
EXTT17=
EXTT18=
EXTT19=
PLAYORDER=
